<svg xmlns="http://www.w3.org/2000/svg" version="1.1" xmlns:xlink="http://www.w3.org/1999/xlink" xmlns:svgjs="http://svgjs.dev/svgjs" width="1500" height="1500" viewBox="0 0 1500 1500"><rect width="1500" height="1500" fill="#ffffff"></rect><g transform="matrix(0.6666666666666666,0,0,0.6666666666666666,249.39393939393938,626.3226997698648)"><svg viewBox="0 0 396 98" data-background-color="#ffffff" preserveAspectRatio="xMidYMid meet" height="371" width="1500" xmlns="http://www.w3.org/2000/svg" xmlns:xlink="http://www.w3.org/1999/xlink"><g id="tight-bounds" transform="matrix(1,0,0,1,0.2400000000000091,0.004213298732821613)"><svg viewBox="0 0 395.52 97.99157340253436" height="97.99157340253436" width="395.52"><g><svg viewBox="0 0 589.8309429396436 146.132843194165" height="97.99157340253436" width="395.52"><g transform="matrix(1,0,0,1,194.31094293964367,0)"><svg viewBox="0 0 395.5199999999999 146.132843194165" height="146.132843194165" width="395.5199999999999"><g id="textblocktransform"><svg viewBox="0 0 395.5199999999999 146.132843194165" height="146.132843194165" width="395.5199999999999" id="textblock"><g><rect width="106.79039999999998" height="9.532546407896646" y="133.629583931681" fill="#000000" data-fill-palette-color="tertiary"></rect><rect width="106.79039999999998" height="9.532546407896646" y="133.629583931681" x="288.72959999999995" fill="#000000" data-fill-palette-color="tertiary"></rect></g><g><svg viewBox="0 0 395.5199999999999 105.70456110877781" height="105.70456110877781" width="395.5199999999999"><g transform="matrix(1,0,0,1,0,0)"><svg width="395.5199999999999" viewBox="3.96 -36.23 174.37 46.61" height="105.70456110877781" data-palette-color="#000000"><path d="M27.32-23.07L27.32-23.07Q27.32-20.02 25.87-17.63 24.41-15.23 21.72-13.89 19.02-12.55 15.48-12.55L15.48-12.55 8.62-12.55 8.62 0 3.96 0 3.96-32.93 15.19-32.93Q21-32.93 24.16-30.33 27.32-27.73 27.32-23.07ZM22.63-23L22.63-23Q22.63-29.2 14.62-29.2L14.62-29.2 8.62-29.2 8.62-16.24 14.82-16.24Q18.46-16.24 20.54-18.02 22.63-19.8 22.63-23ZM37.13 10.38L37.13 10.38Q35.32 10.38 34.1 10.11L34.1 10.11 34.1 6.81Q35.03 6.96 36.15 6.96L36.15 6.96Q38.08 6.96 39.78 5.52 41.48 4.08 42.65 0.93L42.65 0.93 43.09-0.27 31.61-26.42 36.3-26.42 42.75-10.74Q44.97-5.27 45.14-4.54L45.14-4.54 46.14-7.23 53.71-26.42 58.35-26.42 47.21 0Q45.04 5.74 42.71 8.06 40.38 10.38 37.13 10.38ZM68.75-22.95L64.64-22.95 64.64-26.42 68.79-26.42 70.21-33.3 73.14-33.3 73.14-26.42 83.69-26.42 83.69-22.95 73.14-22.95 73.14-7.03Q73.14-5.1 74.18-4.17 75.21-3.25 77.58-3.25L77.58-3.25Q80.85-3.25 84.83-4.08L84.83-4.08 84.83-0.73Q80.71 0.39 76.66 0.39L76.66 0.39Q72.7 0.39 70.72-1.28 68.75-2.95 68.75-6.57L68.75-6.57 68.75-22.95ZM94.52 0L94.52-36.23 98.94-36.23 98.94-26.71Q98.94-25.27 98.72-21.9L98.72-21.9 98.8-21.9Q101.36-26.9 107.07-26.9L107.07-26.9Q115.62-26.9 115.62-17.6L115.62-17.6 115.62 0 111.2 0 111.2-16.97Q111.2-20.29 109.92-21.9 108.64-23.51 105.83-23.51L105.83-23.51Q102.8-23.51 100.86-21.3 98.92-19.09 98.92-15.31L98.92-15.31 98.92 0 94.52 0ZM138.2-26.42L138.2-3.47 147.48-3.47 147.48 0 123.5 0 123.5-3.47 133.8-3.47 133.8-22.95 126.02-22.95 126.02-26.42 138.2-26.42ZM138.2-31.54L133.32-31.54 133.32-36.23 138.2-36.23 138.2-31.54ZM176.89-2.71L176.89-2.71Q177.53-2.71 178.33-2.88L178.33-2.88 178.33-0.15Q176.67 0.24 174.94 0.24L174.94 0.24Q172.5 0.24 171.39-1.04 170.28-2.32 170.13-5.05L170.13-5.05 169.98-5.05Q168.4-2.1 166.24-0.81 164.07 0.49 160.9 0.49L160.9 0.49Q157.04 0.49 155.09-1.61 153.14-3.71 153.14-7.37L153.14-7.37Q153.14-15.89 164.22-16.02L164.22-16.02 169.98-16.11 169.98-17.55Q169.98-20.75 168.69-22.16 167.39-23.56 164.56-23.56L164.56-23.56Q161.68-23.56 160.41-22.53 159.14-21.51 158.9-19.36L158.9-19.36 154.31-19.78Q155.43-26.9 164.64-26.9L164.64-26.9Q169.52-26.9 171.97-24.62 174.43-22.34 174.43-18.02L174.43-18.02 174.43-6.64Q174.43-4.69 174.94-3.7 175.45-2.71 176.89-2.71ZM162.02-2.86L162.02-2.86Q164.37-2.86 166.17-3.98 167.98-5.1 168.98-6.98 169.98-8.86 169.98-10.86L169.98-10.86 169.98-13.04 165.34-12.94Q162.46-12.89 160.95-12.3 159.44-11.72 158.59-10.51 157.75-9.3 157.75-7.3L157.75-7.3Q157.75-5.3 158.84-4.08 159.92-2.86 162.02-2.86Z" opacity="1" transform="matrix(1,0,0,1,0,0)" fill="#000000" class="wordmark-text-0" data-fill-palette-color="primary" id="text-0"></path></svg></g></svg></g><g transform="matrix(1,0,0,1,106.79039999999998,130.65887107709364)"><svg viewBox="0 0 181.93919999999997 15.473972117071368" height="15.473972117071368" width="181.93919999999997"><g transform="matrix(1,0,0,1,8,0)"><svg width="165.93919999999997" viewBox="2.7 -39.65 541.49 50.5" height="15.473972117071368" data-palette-color="#000000"><path d="M21-26.45L21 0 15.65 0 15.35-3.35Q14.1-1.3 12.55-0.28 11 0.75 8.95 0.75L8.95 0.75Q6.05 0.75 4.38-1.3 2.7-3.35 2.7-6.65L2.7-6.65 2.7-26.45 8.85-26.45 8.85-7Q8.85-3.9 10.95-3.9L10.95-3.9Q12.15-3.9 13.1-4.83 14.05-5.75 14.85-7.45L14.85-7.45 14.85-26.45 21-26.45ZM39.05-27.15Q41.9-27.15 43.55-25.1 45.2-23.05 45.2-19.6L45.2-19.6 45.2 0 39.05 0 39.05-18.9Q39.05-20.8 38.52-21.63 38-22.45 37-22.45L37-22.45Q34.9-22.45 32.85-18.5L32.85-18.5 32.85 0 26.7 0 26.7-26.45 32.05-26.45 32.5-23Q33.85-25.1 35.37-26.13 36.9-27.15 39.05-27.15L39.05-27.15ZM50.75-26.45L56.9-26.45 56.9 0 50.75 0 50.75-26.45ZM53.8-39.65Q55.45-39.65 56.47-38.6 57.5-37.55 57.5-35.9L57.5-35.9Q57.5-34.3 56.47-33.25 55.45-32.2 53.8-32.2L53.8-32.2Q52.15-32.2 51.12-33.25 50.1-34.3 50.1-35.9L50.1-35.9Q50.1-37.55 51.12-38.6 52.15-39.65 53.8-39.65L53.8-39.65ZM74.99-26.45L81.04-26.45 74.14 0 66.89 0 59.79-26.45 66.14-26.45 70.49-4.95 74.99-26.45ZM102.79-13.85Q102.79-13.4 102.64-11.3L102.64-11.3 88.99-11.3Q89.19-7.2 90.42-5.58 91.64-3.95 93.89-3.95L93.89-3.95Q95.44-3.95 96.69-4.48 97.94-5 99.39-6.15L99.39-6.15 101.94-2.65Q98.44 0.75 93.54 0.75L93.54 0.75Q88.34 0.75 85.56-2.85 82.79-6.45 82.79-13L82.79-13Q82.79-19.55 85.44-23.35 88.09-27.15 92.94-27.15L92.94-27.15Q97.59-27.15 100.19-23.78 102.79-20.4 102.79-13.85L102.79-13.85ZM96.79-15.3L96.79-15.65Q96.79-19.4 95.89-21.13 94.99-22.85 92.99-22.85L92.99-22.85Q91.14-22.85 90.17-21.18 89.19-19.5 88.99-15.3L88.99-15.3 96.79-15.3ZM118.74-27.1Q119.89-27.1 120.79-26.75L120.79-26.75 119.79-20.85Q118.79-21.1 117.94-21.1L117.94-21.1Q116.04-21.1 114.94-19.45 113.84-17.8 113.24-14.55L113.24-14.55 113.24 0 107.09 0 107.09-26.45 112.44-26.45 112.89-21.85Q114.74-27.1 118.74-27.1L118.74-27.1ZM130.99-27.15Q135.69-27.15 138.94-24.05L138.94-24.05 136.59-20.7Q135.19-21.7 133.94-22.2 132.69-22.7 131.39-22.7L131.39-22.7Q129.94-22.7 129.11-21.93 128.29-21.15 128.29-19.8L128.29-19.8Q128.29-18.45 129.21-17.63 130.14-16.8 132.94-15.7L132.94-15.7Q136.39-14.35 138.04-12.5 139.69-10.65 139.69-7.55L139.69-7.55Q139.69-3.7 136.99-1.48 134.29 0.75 130.14 0.75L130.14 0.75Q127.44 0.75 125.16-0.23 122.89-1.2 121.19-2.95L121.19-2.95 124.19-6.25Q126.99-3.8 129.89-3.8L129.89-3.8Q131.54-3.8 132.49-4.67 133.44-5.55 133.44-7.1L133.44-7.1Q133.44-8.25 133.04-8.97 132.64-9.7 131.64-10.33 130.64-10.95 128.64-11.7L128.64-11.7Q125.19-13.05 123.71-14.85 122.24-16.65 122.24-19.45L122.24-19.45Q122.24-22.8 124.61-24.98 126.99-27.15 130.99-27.15L130.99-27.15ZM160.43-6.4Q160.43-5.1 160.78-4.48 161.13-3.85 161.93-3.45L161.93-3.45 160.68 0.65Q158.63 0.4 157.41-0.45 156.18-1.3 155.58-3.05L155.58-3.05Q153.28 0.75 149.13 0.75L149.13 0.75Q145.83 0.75 143.88-1.48 141.93-3.7 141.93-7.4L141.93-7.4Q141.93-11.7 144.61-13.95 147.28-16.2 152.38-16.2L152.38-16.2 154.43-16.2 154.43-18.05Q154.43-20.55 153.56-21.58 152.68-22.6 150.73-22.6L150.73-22.6Q148.38-22.6 144.88-21.3L144.88-21.3 143.48-25.3Q145.48-26.2 147.63-26.68 149.78-27.15 151.73-27.15L151.73-27.15Q160.43-27.15 160.43-18.35L160.43-18.35 160.43-6.4ZM150.78-3.7Q153.18-3.7 154.43-7L154.43-7 154.43-12.55 152.98-12.55Q150.43-12.55 149.26-11.4 148.08-10.25 148.08-7.85L148.08-7.85Q148.08-5.8 148.78-4.75 149.48-3.7 150.78-3.7L150.78-3.7ZM171.83 0.75Q169.13 0.75 167.56-0.93 165.98-2.6 165.98-5.4L165.98-5.4 165.98-37.05 172.13-37.7 172.13-5.65Q172.13-5 172.43-4.6 172.73-4.2 173.33-4.2L173.33-4.2Q173.68-4.2 174-4.3 174.33-4.4 174.43-4.4L174.43-4.4 175.63-0.2Q173.93 0.75 171.83 0.75L171.83 0.75ZM200.87-27.15Q203.72-27.15 205.38-25.1 207.02-23.05 207.02-19.6L207.02-19.6 207.02 0 200.87 0 200.87-18.9Q200.87-20.8 200.35-21.63 199.82-22.45 198.82-22.45L198.82-22.45Q196.72-22.45 194.67-18.5L194.67-18.5 194.67 0 188.52 0 188.52-37 194.67-37.65 194.67-23.3Q195.92-25.25 197.4-26.2 198.87-27.15 200.87-27.15L200.87-27.15ZM230.72-26.45L230.72 0 225.37 0 225.07-3.35Q223.82-1.3 222.27-0.28 220.72 0.75 218.67 0.75L218.67 0.75Q215.77 0.75 214.1-1.3 212.42-3.35 212.42-6.65L212.42-6.65 212.42-26.45 218.57-26.45 218.57-7Q218.57-3.9 220.67-3.9L220.67-3.9Q221.87-3.9 222.82-4.83 223.77-5.75 224.57-7.45L224.57-7.45 224.57-26.45 230.72-26.45ZM248.77-27.15Q251.62-27.15 253.27-25.1 254.92-23.05 254.92-19.6L254.92-19.6 254.92 0 248.77 0 248.77-18.9Q248.77-20.8 248.25-21.63 247.72-22.45 246.72-22.45L246.72-22.45Q244.62-22.45 242.57-18.5L242.57-18.5 242.57 0 236.42 0 236.42-26.45 241.77-26.45 242.22-23Q243.57-25.1 245.09-26.13 246.62-27.15 248.77-27.15L248.77-27.15ZM271.62-5L273.77-1.2Q271.32 0.75 268.02 0.75L268.02 0.75Q264.57 0.75 262.77-1.23 260.97-3.2 260.97-6.6L260.97-6.6 260.97-22 257.87-22 257.87-26.45 260.97-26.45 260.97-32.3 267.12-33.05 267.12-26.45 272.12-26.45 271.52-22 267.12-22 267.12-6.6Q267.12-4.2 269.17-4.2L269.17-4.2Q269.82-4.2 270.32-4.38 270.82-4.55 271.62-5L271.62-5ZM276.32-26.45L282.47-26.45 282.47 0 276.32 0 276.32-26.45ZM279.37-39.65Q281.02-39.65 282.04-38.6 283.07-37.55 283.07-35.9L283.07-35.9Q283.07-34.3 282.04-33.25 281.02-32.2 279.37-32.2L279.37-32.2Q277.72-32.2 276.69-33.25 275.67-34.3 275.67-35.9L275.67-35.9Q275.67-37.55 276.69-38.6 277.72-39.65 279.37-39.65L279.37-39.65ZM300.51-27.15Q303.36-27.15 305.01-25.1 306.66-23.05 306.66-19.6L306.66-19.6 306.66 0 300.51 0 300.51-18.9Q300.51-20.8 299.99-21.63 299.46-22.45 298.46-22.45L298.46-22.45Q296.36-22.45 294.31-18.5L294.31-18.5 294.31 0 288.16 0 288.16-26.45 293.51-26.45 293.96-23Q295.31-25.1 296.84-26.13 298.36-27.15 300.51-27.15L300.51-27.15ZM330.16-29.85L331.71-25.1Q330.66-24.6 329.19-24.4 327.71-24.2 325.51-24.2L325.51-24.2Q327.61-23.2 328.64-21.53 329.66-19.85 329.66-17.4L329.66-17.4Q329.66-13.4 327.21-10.95 324.76-8.5 320.56-8.5L320.56-8.5Q319.31-8.5 318.01-8.9L318.01-8.9Q317.11-8.15 317.11-6.85L317.11-6.85Q317.11-5.85 317.66-5.35 318.21-4.85 319.71-4.85L319.71-4.85 322.51-4.85Q326.51-4.85 328.86-2.78 331.21-0.7 331.21 2.5L331.21 2.5Q331.21 6.3 328.29 8.58 325.36 10.85 319.96 10.85L319.96 10.85Q314.26 10.85 311.99 8.75 309.71 6.65 309.71 2.6L309.71 2.6 315.16 2.6Q315.16 4.75 316.16 5.65 317.16 6.55 320.01 6.55L320.01 6.55Q322.76 6.55 323.91 5.6 325.06 4.65 325.06 2.9L325.06 2.9Q325.06 1.2 324.11 0.4 323.16-0.4 321.16-0.4L321.16-0.4 319.26-0.4Q315.46-0.4 313.71-1.75 311.96-3.1 311.96-5.45L311.96-5.45Q311.96-6.8 312.69-8.03 313.41-9.25 314.66-10.2L314.66-10.2Q312.61-11.5 311.66-13.3 310.71-15.1 310.71-17.7L310.71-17.7Q310.71-22.05 313.31-24.58 315.91-27.1 320.31-27.1L320.31-27.1Q323.56-27.1 325.69-27.8 327.81-28.5 330.16-29.85L330.16-29.85ZM320.31-23Q318.56-23 317.66-21.75 316.76-20.5 316.76-17.8L316.76-17.8Q316.76-15.25 317.66-13.88 318.56-12.5 320.26-12.5L320.26-12.5Q322.01-12.5 322.86-13.73 323.71-14.95 323.71-17.85L323.71-17.85Q323.71-20.55 322.89-21.78 322.06-23 320.31-23L320.31-23ZM367.96-27.15Q370.61-27.15 372.21-25.1 373.81-23.05 373.81-19.6L373.81-19.6 373.81 0 367.76 0 367.76-18.95Q367.76-20.85 367.26-21.68 366.76-22.5 365.81-22.5L365.81-22.5Q363.86-22.5 362.06-18.8L362.06-18.8 362.06 0 356.06 0 356.06-18.95Q356.06-22.5 354.16-22.5L354.16-22.5Q352.11-22.5 350.36-18.8L350.36-18.8 350.36 0 344.31 0 344.31-26.45 349.66-26.45 350.06-23.05Q352.66-27.15 356.31-27.15L356.31-27.15Q358.16-27.15 359.51-26 360.86-24.85 361.56-22.75L361.56-22.75Q364.21-27.15 367.96-27.15L367.96-27.15ZM396.2-6.4Q396.2-5.1 396.55-4.48 396.9-3.85 397.7-3.45L397.7-3.45 396.45 0.65Q394.4 0.4 393.18-0.45 391.95-1.3 391.35-3.05L391.35-3.05Q389.05 0.75 384.9 0.75L384.9 0.75Q381.6 0.75 379.65-1.48 377.7-3.7 377.7-7.4L377.7-7.4Q377.7-11.7 380.38-13.95 383.05-16.2 388.15-16.2L388.15-16.2 390.2-16.2 390.2-18.05Q390.2-20.55 389.33-21.58 388.45-22.6 386.5-22.6L386.5-22.6Q384.15-22.6 380.65-21.3L380.65-21.3 379.25-25.3Q381.25-26.2 383.4-26.68 385.55-27.15 387.5-27.15L387.5-27.15Q396.2-27.15 396.2-18.35L396.2-18.35 396.2-6.4ZM386.55-3.7Q388.95-3.7 390.2-7L390.2-7 390.2-12.55 388.75-12.55Q386.2-12.55 385.03-11.4 383.85-10.25 383.85-7.85L383.85-7.85Q383.85-5.8 384.55-4.75 385.25-3.7 386.55-3.7L386.55-3.7ZM414.95-37.7L421.1-37.05 421.1 0 415.65 0 415.35-3.05Q413 0.75 409.3 0.75L409.3 0.75Q405.2 0.75 403.03-2.93 400.85-6.6 400.85-13.2L400.85-13.2Q400.85-17.4 401.98-20.58 403.1-23.75 405.1-25.45 407.1-27.15 409.7-27.15L409.7-27.15Q412.9-27.15 414.95-24.5L414.95-24.5 414.95-37.7ZM411.05-3.9Q412.2-3.9 413.13-4.7 414.05-5.5 414.95-7L414.95-7 414.95-19.85Q413.35-22.55 411.3-22.55L411.3-22.55Q407.25-22.55 407.25-13.25L407.25-13.25Q407.25-8.2 408.25-6.05 409.25-3.9 411.05-3.9L411.05-3.9ZM445.65-13.85Q445.65-13.4 445.5-11.3L445.5-11.3 431.85-11.3Q432.05-7.2 433.27-5.58 434.5-3.95 436.75-3.95L436.75-3.95Q438.3-3.95 439.55-4.48 440.8-5 442.25-6.15L442.25-6.15 444.8-2.65Q441.3 0.75 436.4 0.75L436.4 0.75Q431.2 0.75 428.42-2.85 425.65-6.45 425.65-13L425.65-13Q425.65-19.55 428.3-23.35 430.95-27.15 435.8-27.15L435.8-27.15Q440.45-27.15 443.05-23.78 445.65-20.4 445.65-13.85L445.65-13.85ZM439.65-15.3L439.65-15.65Q439.65-19.4 438.75-21.13 437.85-22.85 435.85-22.85L435.85-22.85Q434-22.85 433.02-21.18 432.05-19.5 431.85-15.3L431.85-15.3 439.65-15.3ZM478.64-13.85Q478.64-13.4 478.49-11.3L478.49-11.3 464.84-11.3Q465.04-7.2 466.27-5.58 467.49-3.95 469.74-3.95L469.74-3.95Q471.29-3.95 472.54-4.48 473.79-5 475.24-6.15L475.24-6.15 477.79-2.65Q474.29 0.75 469.39 0.75L469.39 0.75Q464.19 0.75 461.42-2.85 458.64-6.45 458.64-13L458.64-13Q458.64-19.55 461.29-23.35 463.94-27.15 468.79-27.15L468.79-27.15Q473.44-27.15 476.04-23.78 478.64-20.4 478.64-13.85L478.64-13.85ZM472.64-15.3L472.64-15.65Q472.64-19.4 471.74-21.13 470.84-22.85 468.84-22.85L468.84-22.85Q466.99-22.85 466.02-21.18 465.04-19.5 464.84-15.3L464.84-15.3 472.64-15.3ZM499.84-6.4Q499.84-5.1 500.19-4.48 500.54-3.85 501.34-3.45L501.34-3.45 500.09 0.65Q498.04 0.4 496.82-0.45 495.59-1.3 494.99-3.05L494.99-3.05Q492.69 0.75 488.54 0.75L488.54 0.75Q485.24 0.75 483.29-1.48 481.34-3.7 481.34-7.4L481.34-7.4Q481.34-11.7 484.02-13.95 486.69-16.2 491.79-16.2L491.79-16.2 493.84-16.2 493.84-18.05Q493.84-20.55 492.97-21.58 492.09-22.6 490.14-22.6L490.14-22.6Q487.79-22.6 484.29-21.3L484.29-21.3 482.89-25.3Q484.89-26.2 487.04-26.68 489.19-27.15 491.14-27.15L491.14-27.15Q499.84-27.15 499.84-18.35L499.84-18.35 499.84-6.4ZM490.19-3.7Q492.59-3.7 493.84-7L493.84-7 493.84-12.55 492.39-12.55Q489.84-12.55 488.67-11.4 487.49-10.25 487.49-7.85L487.49-7.85Q487.49-5.8 488.19-4.75 488.89-3.7 490.19-3.7L490.19-3.7ZM512.99-27.15Q517.69-27.15 520.94-24.05L520.94-24.05 518.59-20.7Q517.19-21.7 515.94-22.2 514.69-22.7 513.39-22.7L513.39-22.7Q511.94-22.7 511.11-21.93 510.29-21.15 510.29-19.8L510.29-19.8Q510.29-18.45 511.21-17.63 512.14-16.8 514.94-15.7L514.94-15.7Q518.39-14.35 520.04-12.5 521.69-10.65 521.69-7.55L521.69-7.55Q521.69-3.7 518.99-1.48 516.29 0.75 512.14 0.75L512.14 0.75Q509.44 0.75 507.16-0.23 504.89-1.2 503.19-2.95L503.19-2.95 506.19-6.25Q508.99-3.8 511.89-3.8L511.89-3.8Q513.54-3.8 514.49-4.67 515.44-5.55 515.44-7.1L515.44-7.1Q515.44-8.25 515.04-8.97 514.64-9.7 513.64-10.33 512.64-10.95 510.64-11.7L510.64-11.7Q507.19-13.05 505.71-14.85 504.24-16.65 504.24-19.45L504.24-19.45Q504.24-22.8 506.61-24.98 508.99-27.15 512.99-27.15L512.99-27.15ZM544.19-26.45L537.19 0.1Q535.89 4.9 532.99 7.65 530.09 10.4 525.24 10.85L525.24 10.85 524.54 6.5Q527.69 5.85 529.26 4.42 530.84 3 531.74 0L531.74 0 529.44 0 522.74-26.45 528.99-26.45 533.39-4.1 538.09-26.45 544.19-26.45Z" opacity="1" transform="matrix(1,0,0,1,0,0)" fill="#000000" class="slogan-text-1" data-fill-palette-color="secondary" id="text-1"></path></svg></g></svg></g></svg></g></svg></g><g transform="matrix(1,0,0,1,0,0.8652600955764882)"><svg viewBox="0 0 144.40232300301201 144.40232300301201" height="144.40232300301201" width="144.40232300301201"><g><svg></svg></g><g id="icon-0"><svg viewBox="0 0 144.40232300301201 144.40232300301201" height="144.40232300301201" width="144.40232300301201"><g><path d="M0 72.201c0-39.876 32.326-72.201 72.201-72.201 39.876 0 72.201 32.326 72.201 72.201 0 39.876-32.326 72.201-72.201 72.201-39.876 0-72.201-32.326-72.201-72.201zM72.201 134.87c34.611 0 62.669-28.058 62.669-62.669 0-34.611-28.058-62.669-62.669-62.668-34.611 0-62.669 28.058-62.668 62.668 0 34.611 28.058 62.669 62.668 62.669z" data-fill-palette-color="tertiary" fill="#000000" stroke="transparent"></path></g><g transform="matrix(1,0,0,1,44.5498298953804,33.505028647441335)"><svg viewBox="0 0 55.302663212251225 77.39226570812934" height="77.39226570812934" width="55.302663212251225"><g><svg xmlns="http://www.w3.org/2000/svg" xmlns:xlink="http://www.w3.org/1999/xlink" version="1.1" x="0" y="0" viewBox="5.867 29.124 44.996059787770996 62.96888454627988" enable-background="new 0 19.833 56.5 80.167" xml:space="preserve" height="77.39226570812934" width="55.302663212251225" class="icon-dxe-0" data-fill-palette-color="accent" id="dxe-0"><path d="M50.278 90.695C39.834 89.536 32.184 85.188 27.539 77.773 20.862 67.109 22.203 52.834 25.684 43.03A0.702 0.702 0 1 0 24.362 42.56C20.769 52.674 19.406 67.431 26.348 78.518 31.231 86.316 39.231 90.884 50.124 92.092A0.704 0.704 0 0 0 50.278 90.695" fill="#000000" data-fill-palette-color="accent"></path><path d="M25.637 83.464C25.147 83.417 24.643 83.392 24.14 83.392 19.615 83.392 15.576 85.327 13.545 86.5 15.515 88.229 19.716 91.351 24.805 91.854A20 20 0 0 0 26.714 91.952C32.243 91.952 34.248 89.307 34.322 88.559 34.367 88.104 33.997 87.049 32.792 86.019 31.679 85.066 29.533 83.851 25.637 83.464" fill="#000000" data-fill-palette-color="accent"></path><path d="M30.881 80.186A0.7 0.7 0 0 0 31.02 80.197C32.092 80.197 35.403 78.662 36.516 71.843 37.346 66.773 35.41 61.916 34.253 59.583 32.402 61.444 29.017 65.445 28.197 70.479 27.074 77.344 29.965 80.036 30.881 80.186" fill="#000000" data-fill-palette-color="accent"></path><path d="M21.163 69.707C21.475 69.37 21.819 68.309 21.483 66.76 21.173 65.327 20.201 63.063 17.33 60.399 13.578 56.913 8.451 55.833 5.867 55.502 6.392 58.073 7.853 63.103 11.593 66.571 15.033 69.767 17.787 70.245 19.124 70.245 20.38 70.244 21.033 69.847 21.163 69.707" fill="#000000" data-fill-palette-color="accent"></path><path d="M25.694 48.669C22.785 53.136 23.87 55.971 24.437 56.375 24.514 56.426 24.753 56.514 25.141 56.514 25.835 56.514 28.307 56.196 30.971 52.108 33.069 48.887 33.323 44.99 33.269 42.819 31.245 43.657 27.775 45.473 25.694 48.669" fill="#000000" data-fill-palette-color="accent"></path><path d="M20.599 49.285C20.79 49.285 20.904 49.254 20.931 49.243 21.443 48.964 22.574 46.637 20.293 42.428 18.713 39.517 15.896 37.684 14.151 36.77 13.961 38.736 13.962 42.076 15.547 44.999 17.264 48.162 19.342 49.285 20.599 49.285" fill="#000000" data-fill-palette-color="accent"></path><path d="M25.619 41.592H25.621C25.628 41.592 25.655 41.595 25.697 41.595 26.375 41.595 28.395 40.721 29.585 36.728 30.435 33.868 29.844 30.892 29.312 29.124 27.894 30.313 25.79 32.472 24.935 35.349 23.666 39.612 25.255 41.419 25.619 41.592" fill="#000000" data-fill-palette-color="accent"></path></svg></g></svg></g></svg></g></svg></g></svg></g><defs></defs></svg><rect width="395.52" height="97.99157340253436" fill="none" stroke="none" visibility="hidden"></rect></g></svg></g></svg>